<?xml version="1.0" encoding="UTF-8"?>
<!DOCTYPE svg PUBLIC "-//W3C//DTD SVG 1.1//EN" "http://www.w3.org/Graphics/SVG/1.1/DTD/svg11.dtd">
<!-- Creator: CorelDRAW -->
<svg xmlns="http://www.w3.org/2000/svg" xml:space="preserve" width="6.82666in" height="6.82666in" style="shape-rendering:geometricPrecision; text-rendering:geometricPrecision; image-rendering:optimizeQuality; fill-rule:evenodd; clip-rule:evenodd"
viewBox="0 0 6.82666 6.82666"
 xmlns:xlink="http://www.w3.org/1999/xlink">
 <defs>
  <style type="text/css">
   <![CDATA[
    .fil1 {fill:none}
    .fil0 {fill:#212121;fill-rule:nonzero}
   ]]>
  </style>
 </defs>
 <g id="Layer_x0020_1">
  <metadata id="CorelCorpID_0Corel-Layer"/>
  <g id="_554247568">
   <path id="_554247232" class="fil0" d="M1.01005 0.853327l3.47885 0c0.0494921,0 0.0945197,0.0202913 0.127201,0.0529606l0.000417323 0.000417323c0.0326693,0.0326811 0.0529606,0.0777087 0.0529606,0.127201l0 3.07309 0 0.113744 -0.113335 -0.00749213c-0.215969,-0.0142795 -0.431122,0.0283583 -0.645402,0.130362 -0.195543,0.0930866 -0.390547,0.23528 -0.584965,0.42835 0.194421,0.193079 0.389421,0.335264 0.584965,0.42835 0.21428,0.102004 0.429433,0.144642 0.645402,0.130362l0.113335 -0.00749606 0 0.113748 0 0.355823c0,0.0494921 -0.0202913,0.0945197 -0.0529606,0.127201l-0.000417323 0.000417323c-0.0326811,0.0326693 -0.0777087,0.0529606 -0.127201,0.0529606l-3.47885 0c-0.0494921,0 -0.0945197,-0.0202913 -0.127201,-0.0529606l-0.000417323 -0.000417323c-0.0326693,-0.0326811 -0.0529606,-0.0777087 -0.0529606,-0.127201l0 -4.75885c0,-0.0494921 0.0202913,-0.0945197 0.0529606,-0.127201l0.000417323 -0.000417323c0.0326811,-0.0326693 0.0777087,-0.0529606 0.127201,-0.0529606zm3.44609 0.213339l-3.41333 0 0 4.69333 3.41333 0 0 -0.213764c-0.214134,-0.00263386 -0.426516,-0.0531772 -0.637067,-0.153409 -0.242531,-0.115453 -0.482374,-0.297193 -0.719406,-0.547937l-0.0689291 -0.0729213 0.0689291 -0.0729134c0.237031,-0.25074 0.476874,-0.432484 0.719406,-0.547937 0.210551,-0.100228 0.422933,-0.150776 0.637067,-0.153409l0 -2.93104z"/>
   <path id="_554247040" class="fil0" d="M1.62947 2.13333c-0.0589094,0 -0.106669,0.0477598 -0.106669,0.106669 0,0.0589094 0.0477598,0.106669 0.106669,0.106669l2.24 0c0.0589094,0 0.106669,-0.0477598 0.106669,-0.106669 0,-0.0589094 -0.0477598,-0.106669 -0.106669,-0.106669l-2.24 0z"/>
   <path id="_554247064" class="fil0" d="M1.62947 2.87999c-0.0589094,0 -0.106669,0.0477598 -0.106669,0.106669 0,0.0589094 0.0477598,0.106669 0.106669,0.106669l2.24 0c0.0589094,0 0.106669,-0.0477598 0.106669,-0.106669 0,-0.0589094 -0.0477598,-0.106669 -0.106669,-0.106669l-2.24 0z"/>
   <path id="_554246920" class="fil0" d="M1.62947 3.62666c-0.0589094,0 -0.106669,0.0477598 -0.106669,0.106669 0,0.0589094 0.0477598,0.106669 0.106669,0.106669l2.24 0c0.0589094,0 0.106669,-0.0477598 0.106669,-0.106669 0,-0.0589094 -0.0477598,-0.106669 -0.106669,-0.106669l-2.24 0z"/>
   <path id="_554246872" class="fil0" d="M5.68598 4.77196c-0.406945,-0.364539 -0.805484,-0.556445 -1.19492,-0.561661 -0.389831,-0.00522047 -0.778287,0.177295 -1.16526,0.561661 0.386969,0.384366 0.775429,0.566882 1.16526,0.561661 0.389437,-0.00521654 0.787976,-0.197122 1.19492,-0.561661zm-1.19242 -0.774165c0.472823,0.00633465 0.947059,0.244909 1.42257,0.697083l0.0810591 0.0770827 -0.0810591 0.0770827c-0.475516,0.452173 -0.949752,0.690748 -1.42257,0.697083 -0.475134,0.0063622 -0.940047,-0.22113 -1.3939,-0.701248l-0.0689252 -0.0729213 0.0689252 -0.0729134c0.453854,-0.48011 0.918768,-0.70761 1.3939,-0.701248z"/>
   <path id="_554247376" class="fil0" d="M4.50998 4.37957c0.108339,0 0.206445,0.0439291 0.277453,0.114937 0.0710079,0.0710079 0.114937,0.169114 0.114937,0.277453 0,0.108339 -0.0439291,0.206445 -0.114937,0.277453 -0.0710079,0.0710079 -0.169114,0.114937 -0.277453,0.114937 -0.108339,0 -0.206445,-0.0439291 -0.277453,-0.114937 -0.0710079,-0.0710079 -0.114937,-0.169114 -0.114937,-0.277453 0,-0.108339 0.0439291,-0.206445 0.114937,-0.277453 0.0710079,-0.0710079 0.169114,-0.114937 0.277453,-0.114937zm0.126618 0.265772c-0.0323898,-0.0323898 -0.0771614,-0.0524331 -0.126618,-0.0524331 -0.0494528,0 -0.0942283,0.0200433 -0.126618,0.0524331 -0.0323898,0.0323898 -0.0524331,0.0771654 -0.0524331,0.126618 0,0.0494567 0.0200433,0.0942283 0.0524331,0.126618 0.0323898,0.0323898 0.0771654,0.0524331 0.126618,0.0524331 0.0494567,0 0.0942283,-0.0200433 0.126618,-0.0524331 0.0323898,-0.0323898 0.0524331,-0.0771614 0.0524331,-0.126618 0,-0.0494528 -0.0200433,-0.0942283 -0.0524331,-0.126618z"/>
  </g>
 </g>
 <rect class="fil1" width="6.82666" height="6.82666"/>
</svg>
